<svg height='100px' width='100px'  fill="#000000" xmlns="http://www.w3.org/2000/svg" xmlns:xlink="http://www.w3.org/1999/xlink" version="1.1" x="0px" y="0px" viewBox="0 0 512 512" style="enable-background:new 0 0 512 512;" xml:space="preserve"><g><path d="M491,172.9h-68.5c6.5-7.3,10.4-16.9,10.4-27.4v-27.4h36.7c3.9,0,7-3.1,7-7s-3.1-7-7-7h-43c-0.2,0-0.5,0-0.7,0H323.5   c-0.2,0-0.5,0-0.7,0h-43c-3.9,0-7,3.1-7,7s3.1,7,7,7h36.7v27.4c0,10.5,3.9,20.1,10.4,27.4H256H21c-3.9,0-7,3.1-7,7V496   c0,3.9,3.1,7,7,7h235h235c3.9,0,7-3.1,7-7V179.9C498,176.1,494.9,172.9,491,172.9z M330.5,145.6v-27.4h88.4v27.4   c0,15.1-12.3,27.4-27.4,27.4h-33.7C342.8,172.9,330.5,160.7,330.5,145.6z M28,186.9h221V489H28V186.9z M484,489H263V186.9h94.8   h33.7H484L484,489L484,489z"></path><path d="M222.3,217.6H51.1c-3.9,0-7,3.1-7,7v56.7v0V338v121.9c0,3.9,3.1,7,7,7h171.1c3.9,0,7-3.1,7-7V338v-56.7v0v-56.7   C229.3,220.7,226.1,217.6,222.3,217.6z M58.1,288.3h157.1V331H58.1V288.3z M215.3,231.6v42.7H58.1v-42.7L215.3,231.6L215.3,231.6z    M215.3,452.8H58.1V345h157.1V452.8z"></path><path d="M301.8,305.6c-3.9,0-7,3.1-7,7v149.6c0,3.9,3.1,7,7,7h147c3.9,0,7-3.1,7-7V312.6c0-3.9-3.1-7-7-7H301.8z M441.9,455.2h-133   V319.6h133V455.2z"></path><path d="M325.9,270.2c3.9,0,7-3.1,7-7v-26.5c0-3.9-3.1-7-7-7h-26.5c-3.9,0-7,3.1-7,7v26.5c0,3.9,3.1,7,7,7H325.9z M306.4,243.7   h12.5v12.5h-12.5V243.7z"></path><path d="M385,229.7h-26.5c-3.9,0-7,3.1-7,7v26.5c0,3.9,3.1,7,7,7H385c3.9,0,7-3.1,7-7v-26.5C392,232.8,388.8,229.7,385,229.7z    M378,256.2h-12.5v-12.5H378V256.2z"></path><path d="M417.5,270.2H444c3.9,0,7-3.1,7-7v-26.5c0-3.9-3.1-7-7-7h-26.5c-3.9,0-7,3.1-7,7v26.5C410.5,267.1,413.6,270.2,417.5,270.2   z M424.5,243.7H437v12.5h-12.5V243.7z"></path><path d="M114.1,259.9h45.2c3.9,0,7-3.1,7-7s-3.1-7-7-7h-45.2c-3.9,0-7,3.1-7,7S110.2,259.9,114.1,259.9z"></path><path d="M159.3,302.6h-45.2c-3.9,0-7,3.1-7,7s3.1,7,7,7h45.2c3.9,0,7-3.1,7-7S163.2,302.6,159.3,302.6z"></path><path d="M339,69c-2.1,3.3-1.1,7.6,2.2,9.7c1.2,0.7,2.5,1.1,3.7,1.1c2.3,0,4.6-1.2,5.9-3.3c10.9-17.3,1.9-26.8-4.1-33.2   c-6.1-6.5-9.8-10.4-1.8-23.7c2-3.3,0.9-7.6-2.4-9.6c-3.3-2-7.6-0.9-9.6,2.4c-13.4,22.4-3.1,33.3,3.7,40.5   C342.2,58.9,344.1,60.9,339,69z"></path><path d="M372.4,84.4c-2.1,3.3-1.1,7.6,2.2,9.7c1.2,0.7,2.5,1.1,3.7,1.1c2.3,0,4.6-1.2,5.9-3.3c10.9-17.3,1.9-26.8-4.1-33.2   c-6.1-6.5-9.8-10.4-1.8-23.7c2-3.3,0.9-7.6-2.4-9.6c-3.3-2-7.6-0.9-9.6,2.4c-13.4,22.4-3.1,33.3,3.7,40.5   C375.6,74.3,377.5,76.3,372.4,84.4z"></path><path d="M406.2,72c-2.1,3.3-1.1,7.6,2.2,9.7c1.2,0.7,2.5,1.1,3.7,1.1c2.3,0,4.6-1.2,5.9-3.3c10.9-17.3,1.9-26.8-4.1-33.2   c-6.1-6.5-9.8-10.4-1.8-23.7c2-3.3,0.9-7.6-2.4-9.6c-3.3-2-7.6-0.9-9.6,2.4c-13.4,22.4-3.2,33.3,3.7,40.5   C409.4,61.9,411.3,63.9,406.2,72z"></path></g></svg>